<svg width="139" height="180" viewBox="0 0 139 180" fill="none" xmlns="http://www.w3.org/2000/svg">
<g id="light bulb">
<g id="Group" filter="url(#filter0_d_3_2370)">
<path id="OFF" d="M70 161C76.0751 161 81 156.075 81 150C81 143.925 76.0751 139 70 139C63.9249 139 59 143.925 59 150C59 156.075 63.9249 161 70 161Z" fill="#002D67"/>
</g>
<g id="Group_2" filter="url(#filter1_d_3_2370)">
<path id="Ellipse 10" d="M70 161C76.0751 161 81 156.075 81 150C81 143.925 76.0751 139 70 139C63.9249 139 59 143.925 59 150C59 156.075 63.9249 161 70 161Z" fill="#DF93EB"/>
</g>
<path id="Path 100" d="M30.334 86.617H109.388C112.702 86.617 113.594 88.941 115.388 92.617L139 147C139 148.591 138.368 150.117 137.243 151.243C136.117 152.368 134.591 153 133 153H6C4.4087 153 2.88258 152.368 1.75736 151.243C0.632141 150.117 0 148.591 0 147L24.334 92.617C25.837 89.237 27.02 86.617 30.334 86.617Z" fill="white"/>
<path id="Rectangle 13" d="M72 -4H67V98H72V-4Z" fill="white"/>
<path id="Rectangle 14" opacity="0.151" d="M104.294 92.365C103.862 91.3477 102.687 90.8731 101.67 91.305C100.653 91.7369 100.178 92.9117 100.61 93.929L121.724 143.663C122.156 144.68 123.331 145.155 124.348 144.723C125.365 144.291 125.84 143.116 125.408 142.099L104.294 92.365Z" fill="#568BD0"/>
</g>
<defs>
<filter id="filter0_d_3_2370" x="43" y="126" width="54" height="54" filterUnits="userSpaceOnUse" color-interpolation-filters="sRGB">
<feFlood flood-opacity="0" result="BackgroundImageFix"/>
<feColorMatrix in="SourceAlpha" type="matrix" values="0 0 0 0 0 0 0 0 0 0 0 0 0 0 0 0 0 0 127 0" result="hardAlpha"/>
<feOffset dy="3"/>
<feGaussianBlur stdDeviation="8"/>
<feColorMatrix type="matrix" values="0 0 0 0 0 0 0 0 0 0.176471 0 0 0 0 0.403922 0 0 0 1 0"/>
<feBlend mode="normal" in2="BackgroundImageFix" result="effect1_dropShadow_3_2370"/>
<feBlend mode="normal" in="SourceGraphic" in2="effect1_dropShadow_3_2370" result="shape"/>
</filter>
<filter id="filter1_d_3_2370" x="43" y="126" width="54" height="54" filterUnits="userSpaceOnUse" color-interpolation-filters="sRGB">
<feFlood flood-opacity="0" result="BackgroundImageFix"/>
<feColorMatrix in="SourceAlpha" type="matrix" values="0 0 0 0 0 0 0 0 0 0 0 0 0 0 0 0 0 0 127 0" result="hardAlpha"/>
<feOffset dy="3"/>
<feGaussianBlur stdDeviation="8"/>
<feColorMatrix type="matrix" values="0 0 0 0 0.87451 0 0 0 0 0.576471 0 0 0 0 0.921569 0 0 0 1 0"/>
<feBlend mode="normal" in2="BackgroundImageFix" result="effect1_dropShadow_3_2370"/>
<feBlend mode="normal" in="SourceGraphic" in2="effect1_dropShadow_3_2370" result="shape"/>
</filter>
</defs>
</svg>
