<svg width="21" height="21" viewBox="0 0 21 21" fill="none" xmlns="http://www.w3.org/2000/svg">
<g id="surface1">
<path id="Path 101" d="M10.212 0.575012C8.87398 0.575489 7.5701 0.997494 6.48552 1.7811C5.40094 2.56471 4.5908 3.67009 4.17014 4.94029C3.74947 6.21048 3.73966 7.58092 4.1421 8.85701C4.54454 10.1331 5.33877 11.25 6.41202 12.049V12.581C6.22262 12.7467 6.06852 12.9489 5.95886 13.1754C5.84921 13.402 5.78626 13.6482 5.77375 13.8996C5.76125 14.151 5.79946 14.4023 5.88609 14.6386C5.97272 14.8749 6.10601 15.0913 6.27802 15.275C6.06066 15.5076 5.90598 15.7917 5.82849 16.1005C5.751 16.4093 5.75324 16.7327 5.83502 17.0404C5.91679 17.3481 6.0754 17.63 6.29598 17.8596C6.51655 18.0892 6.79185 18.259 7.09603 18.353C7.21842 19.092 7.59918 19.7635 8.17047 20.248C8.74176 20.7324 9.46648 20.9983 10.2155 20.9983C10.9646 20.9983 11.6893 20.7324 12.2606 20.248C12.8319 19.7635 13.2126 19.092 13.335 18.353C13.6387 18.2583 13.9134 18.088 14.1333 17.8581C14.3532 17.6282 14.5111 17.3462 14.5923 17.0386C14.6734 16.731 14.6751 16.4078 14.5973 16.0993C14.5194 15.7909 14.3645 15.5072 14.147 15.275C14.319 15.0913 14.4523 14.8749 14.539 14.6386C14.6256 14.4023 14.6638 14.151 14.6513 13.8996C14.6388 13.6482 14.5758 13.402 14.4662 13.1754C14.3565 12.9489 14.2024 12.7467 14.013 12.581V12.049C15.0863 11.2499 15.8806 10.1329 16.283 8.85677C16.6854 7.58058 16.6755 6.21005 16.2548 4.93981C15.834 3.66957 15.0237 2.5642 13.9389 1.78066C12.8542 0.997133 11.5501 0.575279 10.212 0.575012ZM12.776 13.309C12.9528 13.3158 13.12 13.3907 13.2427 13.5182C13.3654 13.6456 13.4339 13.8156 13.4339 13.9925C13.4339 14.1694 13.3654 14.3394 13.2427 14.4668C13.12 14.5943 12.9528 14.6693 12.776 14.676H7.64702C7.55506 14.6795 7.46334 14.6645 7.37734 14.6317C7.29135 14.5989 7.21285 14.5491 7.14655 14.4853C7.08024 14.4215 7.0275 14.345 6.99147 14.2603C6.95544 14.1756 6.93688 14.0845 6.93688 13.9925C6.93688 13.9005 6.95544 13.8094 6.99147 13.7247C7.0275 13.64 7.08024 13.5635 7.14655 13.4997C7.21285 13.4359 7.29135 13.3861 7.37734 13.3533C7.46334 13.3206 7.55506 13.3055 7.64702 13.309H12.776ZM10.212 19.804C9.79552 19.8034 9.38992 19.6708 9.05355 19.4252C8.71718 19.1795 8.46736 18.8336 8.34002 18.437H12.085C11.9576 18.8337 11.7077 19.1798 11.3711 19.4255C11.0345 19.6711 10.6287 19.8036 10.212 19.804ZM12.776 17.24H7.64702C7.46574 17.24 7.29189 17.168 7.16371 17.0398C7.03553 16.9116 6.96353 16.7378 6.96353 16.5565C6.96353 16.3752 7.03553 16.2014 7.16371 16.0732C7.29189 15.945 7.46574 15.873 7.64702 15.873H12.775C12.9563 15.873 13.1302 15.945 13.2583 16.0732C13.3865 16.2014 13.4585 16.3752 13.4585 16.5565C13.4585 16.7378 13.3865 16.9116 13.2583 17.0398C13.1302 17.168 12.9573 17.24 12.776 17.24ZM13.084 11.24C13.0019 11.295 12.9347 11.3694 12.8883 11.4567C12.8419 11.5439 12.8178 11.6412 12.818 11.74V12.114H12.092V9.75401L12.951 8.89501C13.0138 8.84122 13.0648 8.77503 13.1009 8.70059C13.1369 8.62615 13.1571 8.54508 13.1603 8.46244C13.1635 8.37981 13.1496 8.29741 13.1194 8.22042C13.0892 8.14342 13.0435 8.07349 12.985 8.01502C12.9265 7.95655 12.8566 7.91079 12.7796 7.88063C12.7026 7.85046 12.6202 7.83654 12.5376 7.83973C12.455 7.84292 12.3739 7.86316 12.2994 7.89918C12.225 7.93519 12.1588 7.9862 12.105 8.04901L11.07 9.08401C10.9581 9.19634 10.8952 9.34843 10.895 9.50701V12.113H9.52802V9.50601C9.52789 9.34743 9.46496 9.19534 9.35302 9.08301L8.31803 8.04801C8.26424 7.9852 8.19804 7.93419 8.12361 7.89818C8.04917 7.86216 7.96809 7.84192 7.88545 7.83873C7.80282 7.83554 7.72042 7.84946 7.64343 7.87963C7.56643 7.90979 7.49651 7.95555 7.43804 8.01402C7.37956 8.07249 7.33381 8.14242 7.30364 8.21942C7.27348 8.29641 7.25955 8.37881 7.26274 8.46144C7.26593 8.54408 7.28618 8.62516 7.32219 8.69959C7.35821 8.77403 7.40922 8.84022 7.47202 8.89401L8.33103 9.75301V12.112H7.60502V11.738C7.60528 11.6392 7.58113 11.5419 7.53473 11.4547C7.48833 11.3674 7.4211 11.293 7.33902 11.238C6.41673 10.6219 5.71706 9.72541 5.34333 8.68109C4.96961 7.63677 4.94165 6.49994 5.26359 5.43851C5.58553 4.37709 6.2403 3.44734 7.13119 2.78659C8.02208 2.12583 9.10185 1.76912 10.211 1.76912C11.3202 1.76912 12.4 2.12583 13.2909 2.78659C14.1817 3.44734 14.8365 4.37709 15.1585 5.43851C15.4804 6.49994 15.4524 7.63677 15.0787 8.68109C14.705 9.72541 14.0053 10.6219 13.083 11.238L13.084 11.24Z" fill="#002D67"/>
<path id="Path 102" d="M2.479 6.94201C2.479 6.78288 2.41579 6.63028 2.30326 6.51775C2.19074 6.40523 2.03813 6.34202 1.879 6.34202H0.6C0.521207 6.34202 0.443185 6.35753 0.37039 6.38769C0.297595 6.41784 0.231451 6.46204 0.175736 6.51775C0.120021 6.57347 0.0758251 6.6396 0.0456723 6.71239C0.0155195 6.78519 0 6.86322 0 6.94201C0 7.0208 0.0155195 7.09883 0.0456723 7.17162C0.0758251 7.24442 0.120021 7.31056 0.175736 7.36628C0.231451 7.42199 0.297595 7.46619 0.37039 7.49635C0.443185 7.5265 0.521207 7.54202 0.6 7.54202H1.88C2.03896 7.54175 2.19131 7.47842 2.30362 7.36593C2.41592 7.25344 2.479 7.10097 2.479 6.94201Z" fill="#002D67"/>
<path id="Path 103" d="M19.826 6.34202H18.544C18.4652 6.34202 18.3872 6.35753 18.3144 6.38769C18.2416 6.41784 18.1754 6.46204 18.1197 6.51775C18.064 6.57347 18.0198 6.6396 17.9897 6.71239C17.9595 6.78519 17.944 6.86322 17.944 6.94201C17.944 7.0208 17.9595 7.09883 17.9897 7.17162C18.0198 7.24442 18.064 7.31056 18.1197 7.36628C18.1754 7.42199 18.2416 7.46619 18.3144 7.49635C18.3872 7.5265 18.4652 7.54202 18.544 7.54202H19.826C19.9048 7.54202 19.9828 7.5265 20.0556 7.49635C20.1284 7.46619 20.1945 7.42199 20.2502 7.36628C20.306 7.31056 20.3502 7.24442 20.3803 7.17162C20.4105 7.09883 20.426 7.0208 20.426 6.94201C20.426 6.86322 20.4105 6.78519 20.3803 6.71239C20.3502 6.6396 20.306 6.57347 20.2502 6.51775C20.1945 6.46204 20.1284 6.41784 20.0556 6.38769C19.9828 6.35753 19.9048 6.34202 19.826 6.34202Z" fill="#002D67"/>
<path id="Path 104" d="M2.69799 10.59L1.58799 11.231C1.51418 11.2673 1.44861 11.3183 1.39535 11.381C1.3421 11.4437 1.30229 11.5166 1.27841 11.5953C1.25453 11.674 1.24709 11.7568 1.25654 11.8385C1.26599 11.9202 1.29214 11.9991 1.33336 12.0702C1.37457 12.1414 1.42998 12.2033 1.49614 12.2522C1.56229 12.301 1.63779 12.3358 1.71793 12.3542C1.79808 12.3727 1.88116 12.3745 1.96202 12.3595C2.04289 12.3445 2.1198 12.313 2.18799 12.267L3.29799 11.626C3.37087 11.5892 3.43548 11.5379 3.48784 11.4752C3.54021 11.4126 3.57923 11.3399 3.60252 11.2616C3.62581 11.1833 3.63288 11.1011 3.6233 11.0201C3.61371 10.939 3.58768 10.8607 3.54678 10.79C3.50588 10.7193 3.45099 10.6577 3.38546 10.609C3.31994 10.5603 3.24515 10.5254 3.16569 10.5066C3.08623 10.4878 3.00376 10.4854 2.92334 10.4996C2.84292 10.5137 2.76624 10.5442 2.69799 10.589V10.59Z" fill="#002D67"/>
<path id="Path 105" d="M17.429 3.37401C17.5343 3.37413 17.6378 3.34654 17.729 3.29401L18.8391 2.65301C18.9129 2.61675 18.9784 2.5657 19.0317 2.50303C19.0849 2.44036 19.1247 2.36741 19.1486 2.28871C19.1725 2.21001 19.18 2.12724 19.1705 2.04554C19.1611 1.96385 19.1349 1.88496 19.0937 1.8138C19.0524 1.74263 18.997 1.68069 18.9309 1.63184C18.8647 1.58298 18.7892 1.54825 18.7091 1.5298C18.6289 1.51134 18.5459 1.50956 18.465 1.52457C18.3841 1.53957 18.3072 1.57104 18.239 1.61701L17.129 2.25801C17.0159 2.32462 16.9278 2.42647 16.8781 2.54797C16.8284 2.66946 16.82 2.8039 16.854 2.93066C16.8881 3.05743 16.9628 3.16953 17.0666 3.24979C17.1705 3.33005 17.2978 3.37304 17.429 3.37401Z" fill="#002D67"/>
<path id="Path 106" d="M18.838 11.231L17.728 10.59C17.6598 10.544 17.5829 10.5126 17.5021 10.4976C17.4212 10.4826 17.3381 10.4843 17.258 10.5028C17.1778 10.5212 17.1023 10.556 17.0362 10.6048C16.97 10.6537 16.9146 10.7156 16.8734 10.7868C16.8322 10.858 16.806 10.9368 16.7966 11.0185C16.7871 11.1002 16.7946 11.183 16.8184 11.2617C16.8423 11.3404 16.8821 11.4134 16.9354 11.476C16.9886 11.5387 17.0542 11.5897 17.128 11.626L18.238 12.267C18.3062 12.313 18.3831 12.3445 18.464 12.3595C18.5449 12.3745 18.6279 12.3727 18.7081 12.3542C18.7882 12.3358 18.8637 12.301 18.9299 12.2522C18.996 12.2033 19.0514 12.1414 19.0927 12.0702C19.1339 11.9991 19.16 11.9202 19.1695 11.8385C19.1789 11.7568 19.1715 11.674 19.1476 11.5953C19.1237 11.5166 19.0839 11.4437 19.0307 11.381C18.9774 11.3183 18.9118 11.2673 18.838 11.231Z" fill="#002D67"/>
<path id="Path 107" d="M3.30001 2.25701L2.19001 1.61601C2.05355 1.54897 1.89673 1.53623 1.75123 1.58038C1.60574 1.62452 1.48243 1.72226 1.40623 1.85383C1.33003 1.9854 1.30662 2.14099 1.34074 2.28916C1.37486 2.43732 1.46395 2.56701 1.59002 2.65201L2.70002 3.29301C2.83679 3.36211 2.99482 3.37625 3.1417 3.33255C3.28857 3.28884 3.41316 3.19059 3.4899 3.05795C3.56664 2.92531 3.58973 2.76834 3.55442 2.61922C3.51911 2.47011 3.42809 2.34115 3.30001 2.25701Z" fill="#002D67"/>
</g>
</svg>
